# xmcd
#
# Track frame offsets:
#       150
#       23470
#       47942
#       64565
#       87910
#       112505
#       129285
#       144240
#       167267
#       193090
#       214807
#
# Disc length: 3069 seconds
#
# Revision: 2
# Processed by: cddbd v1.5.1PL0 Copyright (c) Steve Scherf et al.
# Submitted via: MusiCat 1.1
#
DISCID=820bfb0b
DTITLE=Robert Pete Williams - Robert Pete Williams
DYEAR=1971
DGENRE=Blues
TTITLE0=Farm  Blues
TTITLE1=Goodbye Slim Harpo
TTITLE2=Rub Me Until My Love Comes Down
TTITLE3=Freight Train Blues
TTITLE4=Got Me Way Down Here
TTITLE5=Matchbox Blues
TTITLE6=Railroad Blues
TTITLE7=Tombstone Blues
TTITLE8=Sweep My Floor
TTITLE9=You Used to Be a Sweet Cover Shaker But You Ain't No More
TTITLE10=Vietnam Blues
EXTD=Fat Possum\n80349 2\ngatefold digipak
EXTT0=
EXTT1=
EXTT2=
EXTT3=
EXTT4=
EXTT5=
EXTT6=
EXTT7=
EXTT8=
EXTT9=
EXTT10=
PLAYORDER=
